#!OML:ASF F:\VICON\USERDATA\INSTALL\rory3\rory3.ASF
:FULLY-SPECIFIED
:DEGREES
1
root 1.3188904257372467 18.028389478073482 -29.617083030630333 -4.1387678558113645 -2.159096822198816 0.29680168147136277
lfemur -8.904440421004749 -0.655429557877738 -23.566493955954343
ltibia 22.34690642882927
lfoot -11.912395359783998 -5.416095370872769
ltoes -5.189858155516717
rfemur -18.21759695322785 -0.6707140376289251 21.42040686765239
rtibia 71.2065816100398
rfoot -3.312276716360703 -3.33620710071456
rtoes 1.080273989014319
lowerback 11.667785912161019 0.681930294421238 -0.9316712320078686
upperback 1.2504402939795634 0.8239139012556688 0.703197436391662
thorax -5.257492075812598 0.43186552177804155 1.1298999851880653
lowerneck -16.17539587843759 -2.801021378258663 -1.5538144958171474
upperneck 24.921086606214644 -3.2850433139932638 -0.9240564685725661
head 10.69918673275031 -1.7643410540039393 -0.524828802950197
lclavicle -2.702606427131613e-15 -2.3230481169347816e-15
lhumerus -32.93529540486235 3.8434688736952354 81.33499987554355
lradius 19.86580842577117
lwrist 0.6037978685461516
lhand -28.109197880539853 20.43240861724758
lfingers 7.125020000000001
lthumb -1.4913378803099988 50.40700858351508
rclavicle -2.702606427131613e-15 -2.3230481169347816e-15
rhumerus -25.651605951650897 -20.45040337075895 -78.34429550575418
rradius 26.95959550122761
rwrist 4.537952392684263
rhand -18.09020107990679 23.779191132467297
rfingers 7.125020000000001
rthumb 8.18328891892952 -6.042288847911954
2
root 1.3225103381463494 17.968893194483627 -28.841783374790268 -4.152877743793738 -0.3641683725811067 0.752914410522155
lfemur -6.981811715215169 -0.34846275057731146 -24.17839298365417
ltibia 23.917905521227365
lfoot -15.977690981892298 -6.137134307949633
ltoes -6.676166147194932
rfemur -23.243893372516617 -2.1542694174588686 21.101907357210372
rtibia 68.63538305398092
rfoot -7.5459715723214185 -3.7078561932840914
rtoes 0.5487428490817607
lowerback 12.059181861639368 -0.23463744356839922 -2.311551603081103
upperback 0.6590708966308791 -0.5434200413037632 1.3225433943842517
thorax -6.042431383059545 -0.18536348590297963 2.791592924554493
lowerneck -13.880029954626739 -2.622256130739739 -2.2848220130614956
upperneck 24.131891721392442 -2.899968726597786 -0.9299854022733477
head 9.982809091537133 -1.6605252984143788 -0.306423423227824
lclavicle -2.7026064548523617e-15 -2.323048133892608e-15
lhumerus -31.86929728543313 1.6348931846415258 82.23409480703761
lradius 22.197704144844817
lwrist 2.5250819115168803
lhand -28.13379778230792 23.477700892266213
lfingers 7.125020000000001
lthumb -1.51509778206926 53.45200086491992
rclavicle -2.7026064548523617e-15 -2.323048133892608e-15
rhumerus -28.718701479364327 -18.951305226883 -77.36319706242344
rradius 27.51049443440426
rwrist 3.096834692897281
rhand -17.943502250734678 23.648891921754625
rfingers 7.125020000000001
rthumb 8.32481774857093 -6.167118094206735
3
root 1.3267302360376214 17.904797198212872 -28.04238372964837 -3.8841798769713156 1.386376288464729 1.5913190743239207
lfemur -4.5805033316470585 -0.2696190569193604 -25.07219156341901
ltibia 24.352805269975896
lfoot -19.387887309472973 -7.232182693678633
ltoes -6.121776896294058
rfemur -27.056490656439255 -3.372515623529294 20.321908556127866
rtibia 62.583086452847084
rfoot -10.77919764387536 -6.239630011623086
rtoes 1.7451629131614212
lowerback 11.67908579521954 -0.5888230237649485 -2.7916703404240133
upperback 1.506505269991775 -1.0881226282110688 0.8735524994425302
thorax -4.900816934582148 -0.47736865099394343 2.6605634813065038
lowerneck -17.14758144571515 -2.8749794120814505 -1.4871556340903709
upperneck 24.486389423710577 -3.457330892320797 -0.6773052278232827
head 10.73108618242814 -1.8042894207521856 -0.4831830653107918
lclavicle -2.7026065047015355e-15 -2.323048133892608e-15
lhumerus -27.177105563119987 -3.2904172015840096 82.50359328778241
lradius 24.8119993454856
lwrist 4.744686184803333
lhand -26.973902413983517 31.098881559646124
lfingers 7.125020000000001
lthumb -0.3948654139257298 61.078281533451175
rclavicle -2.7026065047015355e-15 -2.323048133892608e-15
rhumerus -28.832201313864505 -21.476402100407885 -77.34699708812727
rradius 27.220994995023897
rwrist 3.265004424476319
rhand -17.912302499745106 23.661691844219106
rfingers 7.125020000000001
rthumb 8.35496749925056 -6.153048179159331
4
root 1.312990568495894 17.858600083896043 -27.24908408179865 -3.440383400247116 2.0630630649765465 2.3189070469142523
lfemur -1.5295253854016266 0.04461232215503319 -25.78759042665883
ltibia 23.138205971677564
lfoot -20.84158574399412 -7.7009620026252925
ltoes -4.236479443736424
rfemur -29.72928875234973 -2.916777042815524 19.647709592422988
rtibia 53.10519177547031
rfoot -10.59439786841145 -9.673921626345376
rtoes 1.0345140630581855
lowerback 12.018982277661271 -0.8503172372308994 -3.7886377185143996
upperback 1.0164248853554465 -1.5771304618522968 0.9659334490645882
thorax -5.544698163377914 -0.6749347329392712 3.4162102705177073
lowerneck -16.39399263322763 -2.9067385677630586 -1.7609609585639492
upperneck 24.316090527505274 -3.4576108883851755 -0.6142249332071638
head 10.530289646525063 -1.825308561404204 -0.3999295888801657
lclavicle -2.702606439038692e-15 -2.3230481344982467e-15
lhumerus -25.44440861984137 -4.979003905610682 81.96649631558192
lradius 27.6452941440839
lwrist 5.931993121479473
lhand -28.69729553215773 21.88760492585662
lfingers 7.125020000000001
lthumb -2.059355531711339 51.85740490697964
rclavicle -2.702606439038692e-15 -2.3230481344982467e-15
rhumerus -31.316497691386743 -22.73980053611789 -75.86029944701033
rradius 26.617796163126727
rwrist 3.6394838267580383
rhand -17.513505682609193 23.81689090410097
rfingers 7.125020000000001
rthumb 8.739874316301883 -5.982139211088823
5
root 1.292471065005626 17.87939878471401 -26.42858444602313 -2.5715402979446873 2.270942074717028 2.7129959487932167
lfemur 2.2751720534803415 0.0907160430220264 -26.354089526498612
ltibia 19.559008039461595
lfoot -19.951286702751602 -7.273602632619229
ltoes -1.089783695599205
rfemur -30.586688141542258 0.18703929110832096 18.241311754163466
rtibia 40.278598978665116
rfoot -8.304950650143908 -11.703486670893579
rtoes 6.459485284943848
lowerback 11.240790331100063 -1.1010005245573278 -4.346546251279074
upperback 0.592737198096221 -1.946018827636049 1.1857949492237596
thorax -5.500208769429999 -0.8348041808593873 4.005567766302142
lowerneck -15.438306821000554 -2.855769922766473 -2.264962352187002
upperneck 23.73199431333314 -3.325272748528737 -0.40546326764639123
head 10.148796227964183 -1.7887300568822802 -0.20153760251421843
lclavicle -2.702606402488071e-15 -2.3230481599350323e-15
lhumerus -23.785411546545774 -5.45296298048406 81.16480083501382
lradius 30.273489319206917
lwrist 6.725231074877479
lhand -29.82959101069357 24.675397854072877
lfingers 7.125020000000001
lthumb -3.1529210101152128 54.63179787431283
rclavicle -2.702606402488071e-15 -2.3230481599350323e-15
rhumerus -33.281594825979575 -23.970399012439515 -74.2543019951816
rradius 25.337998641472222
rwrist 4.27538281177978
rhand -17.665804467087128 23.61469212891983
rfingers 7.125020000000001
rthumb 8.592885531811032 -6.190497953041725
6
root 1.2734815244948998 17.83720142055448 -25.58928481859307 -1.720707052662995 1.9947133905693961 2.8542455552039394
lfemur 5.988849553631997 -0.8620307551422144 -27.119888309653565
ltibia 16.471009823468364
lfoot -17.929588879905484 -5.410565379024823
ltoes 4.382238910521258
rfemur -30.433088250966094 5.964015300130784 15.753815577634365
rtibia 26.682206614166155
rfoot -4.887844802008239 -13.391682548939826
rtoes 12.424285633335165
lowerback 10.908693767937665 -1.2294696468535342 -4.292416393634391
upperback 0.1740504127194391 -2.0934181746406293 1.3534730427119595
thorax -5.737695534291554 -0.8920636249606029 4.172387057476912
lowerneck -15.89879998468222 -2.6076165199343637 -2.327751279997148
upperneck 23.567695378239 -2.9168184897576848 -0.5153420389470834
head 10.173295805302955 -1.618067034280949 -0.1807182335884277
lclavicle -2.70260644043008e-15 -2.3230481593293934e-15
lhumerus -22.484013842394567 -5.2181134388897945 80.35380540687271
lradius 32.626085000279275
lwrist 7.86015814669685
lhand -32.254781326462485 23.532500753255615
lfingers 7.125020000000001
lthumb -5.494731327365827 53.44130089204273
rclavicle -2.70260644043008e-15 -2.3230481593293934e-15
rhumerus -34.894492474132214 -25.452797176992718 -72.53970471566382
rradius 23.48140223679668
rwrist 6.3902794361271535
rhand -19.799387438604658 21.37200571399034
rfingers 7.125020000000001
rthumb 6.533442562170033 -8.507223964905673
7
root 1.2339424812197959 17.750206854633177 -24.72918520039628 -1.328350167562709 2.1099328417060894 2.38129687306622
lfemur 9.319747311450524 -1.4438944943484726 -26.922488623319303
ltibia 15.344210474445994
lfoot -18.067088731832754 -3.6948679082287708
ltoes 4.02277939622838
rfemur -30.24548838461147 10.57408094320993 13.89961842767644
rtibia 18.47981122049094
rfoot -9.02821977135484 -15.790576691722105
rtoes 4.632008241973809
lowerback 10.6204967504628 -1.6129170271328477 -3.872857497026051
upperback -0.11930083173721048 -2.5150063069585915 1.8449674543856847
thorax -5.838304163761093 -1.0966566386855172 4.513275609020876
lowerneck -15.21161018645846 -2.3326238306257294 -2.9090413538311597
upperneck 22.995099089529937 -2.3828559951291313 -0.5799953159736136
head 9.842021520372818 -1.429564741021577 -0.021779951306542616
lclavicle -2.7026065303887532e-15 -2.323048144188453e-15
lhumerus -22.259614238267073 -4.475054889275028 79.99830741093662
lradius 35.035080577811925
lwrist 8.777275780477787
lhand -31.20768550770871 20.68960796481096
lfingers 7.125020000000001
lthumb -4.4836855077655855 50.622208038017
rclavicle -2.7026065303887532e-15 -2.323048144188453e-15
rhumerus -36.24529050446552 -26.225796219895862 -70.7413075691079
rradius 21.97510515376168
rwrist 8.309306373108264
rhand -19.60828896379354 19.96791421927304
rfingers 7.125020000000001
rthumb 6.717991036064767 -9.90548552235666
8
root 1.1503845030693736 17.627014549788296 -23.85628558788146 -1.6390477009520943 1.4604259357193043 2.0556377805089117
lfemur 12.301385304371838 -1.9391425700942633 -26.692288989103755
ltibia 16.523309793253503
lfoot -18.75818798759225 -2.327909923336666
ltoes -0.5817003821290476
rfemur -30.369688296132004 8.618577033148112 15.543415901034662
rtibia 19.589810597134324
rfoot -7.922271115108585 -9.828461249016422
rtoes 4.607018282409918
lowerback 11.875583761679676 -1.878705211262293 -4.322656314106878
upperback -0.6998984404280886 -2.9309744641736595 2.5682992300521597
thorax -7.064567459118483 -1.2192854481534274 5.694820588564954
lowerneck -14.000228170206624 -1.8131676403888015 -3.4220725932596827
upperneck 21.95480583220537 -1.4563090186640975 -1.1188472903597484
head 9.241111887131394 -1.0943384464362935 0.013563977352539225
lclavicle -2.7026063522910554e-15 -2.323048144188453e-15
lhumerus -24.030811113626395 -2.8722080178917224 79.99510742897601
lradius 37.06677684799591
lwrist 9.361744272513643
lhand -32.05948210632819 22.356603736149115
lfingers 7.125020000000001
lthumb -5.30614210713101 52.27010386085017
rclavicle -2.7026063522910554e-15 -2.323048144188453e-15
rhumerus -37.86738813920321 -26.66629567448686 -68.23741154193857
rradius 20.31730836410795
rwrist 10.693992566836066
rhand -18.951394206580442 21.790503178942405
rfingers 7.125020000000001
rthumb 7.352075792563877 -8.061776654467387
